<?xml version="1.0" encoding="UTF-8" standalone="no"?>
<svg
   version="1.1"
   width="512"
   height="512"
   id="svg10"
   sodipodi:docname="icon-512x512.svg"
   inkscape:version="1.4.2 (f4327f4, 2025-05-13)"
   xmlns:inkscape="http://www.inkscape.org/namespaces/inkscape"
   xmlns:sodipodi="http://sodipodi.sourceforge.net/DTD/sodipodi-0.dtd"
   xmlns="http://www.w3.org/2000/svg"
   xmlns:svg="http://www.w3.org/2000/svg">
  <defs
     id="defs10">
    <clipPath
       clipPathUnits="userSpaceOnUse"
       id="clipPath10">
      <rect
         style="opacity:0.5;fill:#ffffff;fill-opacity:1;stroke-width:1.85305;stroke-linecap:round;stroke-linejoin:round;stroke-dasharray:3.70607, 3.70607"
         id="rect10"
         width="126.601"
         height="126.601"
         x="332.2695"
         y="104.76966" />
    </clipPath>
  </defs>
  <sodipodi:namedview
     id="namedview10"
     pagecolor="#505050"
     bordercolor="#eeeeee"
     borderopacity="1"
     inkscape:showpageshadow="0"
     inkscape:pageopacity="0"
     inkscape:pagecheckerboard="0"
     inkscape:deskcolor="#505050"
     inkscape:zoom="0.69467717"
     inkscape:cx="343.32494"
     inkscape:cy="216.6474"
     inkscape:window-width="1366"
     inkscape:window-height="705"
     inkscape:window-x="-8"
     inkscape:window-y="-8"
     inkscape:window-maximized="1"
     inkscape:current-layer="svg10" />
  <path
     d="M0 0 C3.82479393 0.00257155 7.64958573 0.00017252 11.47437978 -0.00138617 C17.9017473 -0.00319607 24.32910326 -0.00083479 30.75646901 0.00395441 C38.11296609 0.00937379 45.46943534 0.00764653 52.82593173 0.00212801 C59.20794681 -0.00246222 65.58995369 -0.00302463 71.9719699 -0.00043333 C75.75415941 0.00110012 79.536336 0.00140681 83.3185246 -0.00196981 C134.08398866 -0.04101685 134.08398866 -0.04101685 150.97302175 2.8218255 C152.03367848 2.99407648 153.09433522 3.16632746 154.18713307 3.34379816 C169.91157821 6.04318282 185.09960589 10.62064762 199.66052175 17.1343255 C200.2923235 17.4146966 200.92412526 17.69506769 201.57507253 17.98393488 C217.49192408 25.15304624 231.04491393 35.14635987 243.66052175 47.1343255 C245.07124019 48.34959805 246.48745893 49.55853155 247.91052175 50.7593255 C268.53966626 68.7993871 282.68291936 95.24042437 290.66052175 121.1343255 C291.05134938 122.38415216 291.05134938 122.38415216 291.45007253 123.65922785 C299.53711141 150.10946438 300.12719974 177.19776579 299.99763513 204.60572147 C299.98217521 208.53833236 299.98376323 212.47094593 299.98297048 216.4035821 C299.97931599 223.00398268 299.96455561 229.60427693 299.94177175 236.204638 C299.9129887 244.55744572 299.9025446 252.91016806 299.89808965 261.26302004 C299.89404109 268.59032192 299.88155172 275.91760684 299.86774278 283.24489594 C299.86373608 285.5287187 299.8607652 287.81254095 299.85794759 290.09636545 C299.83536673 305.63281334 299.71295166 321.16569825 299.32849193 336.69786859 C299.29211326 338.19026931 299.25827516 339.6827347 299.22730422 341.17525744 C298.35726332 381.81878059 282.89186191 422.86530435 255.66052175 453.1343255 C254.79040456 454.12561457 253.92028737 455.11690363 253.023803 456.13823175 C248.20686138 461.56005732 243.30738195 466.58327209 237.66052175 471.1343255 C236.716928 471.90389582 235.77333425 472.67346613 234.80114675 473.46635675 C205.62205676 496.84234786 170.65122222 508.27262198 133.66052175 511.1343255 C132.64209188 511.21768656 131.623662 511.30104761 130.57437062 511.38693476 C116.17119119 512.40119771 101.75163768 512.2814315 87.32104349 512.26865101 C83.49624956 512.26607946 79.67145776 512.26847849 75.84666371 512.27003717 C69.4192962 512.27184708 62.99194023 512.2694858 56.56457448 512.2646966 C49.2080774 512.25927722 41.85160815 512.26100447 34.49511176 512.266523 C28.11309668 512.27111323 21.7310898 512.27167564 15.34907359 512.26908433 C11.56688409 512.26755089 7.78470749 512.2672442 4.00251889 512.27062082 C-46.76294517 512.30966786 -46.76294517 512.30966786 -63.65197825 509.4468255 C-64.71263499 509.27457453 -65.77329173 509.10232355 -66.86608958 508.92485285 C-82.59053472 506.22546819 -97.7785624 501.64800339 -112.33947825 495.1343255 C-112.97128001 494.85395441 -113.60308177 494.57358332 -114.25402904 494.28471613 C-129.05635134 487.61760004 -142.24117412 478.52871592 -154.00354075 467.34916925 C-156.03345699 465.42448279 -158.11403278 463.65440945 -160.27697825 461.8843255 C-176.08299032 448.00980167 -187.75776041 429.14201251 -196.33947825 410.1343255 C-197.11871654 408.45983332 -197.11871654 408.45983332 -197.913697 406.751513 C-201.33792973 398.86049902 -203.75575688 390.7323225 -206.02697825 382.4468255 C-206.45539012 380.95542048 -206.45539012 380.95542048 -206.89245677 379.43388605 C-213.28088725 355.01941864 -212.77841987 329.36668777 -212.67659163 304.33490252 C-212.66124483 299.81062813 -212.66272264 295.28635288 -212.66192698 290.76205683 C-212.65826867 283.18566467 -212.64347086 275.60936499 -212.62072825 268.03300714 C-212.59174478 258.35897825 -212.58148681 248.68502296 -212.57704616 239.01095533 C-212.57304543 230.61029092 -212.56056028 222.20964194 -212.54669929 213.80898881 C-212.54263812 211.14547035 -212.5396939 208.4819524 -212.5369041 205.81843233 C-212.53194902 201.61479393 -212.52164463 197.41119812 -212.50746608 193.20758104 C-212.50301229 191.68115992 -212.50012127 190.15473316 -212.49905849 188.62830591 C-212.49235308 180.75192679 -212.34239186 172.90388964 -211.89996409 165.03879023 C-211.8624281 164.35267013 -211.8248921 163.66655003 -211.78621864 162.95963842 C-211.3665779 156.18663816 -210.19931182 149.63451538 -208.77697825 143.0093255 C-208.51376781 141.76940851 -208.25055736 140.52949152 -207.97937083 139.25200129 C-199.62367028 101.5364065 -180.87157663 65.64677393 -150.33947825 41.1343255 C-149.39717357 40.36604425 -148.45486888 39.597763 -147.4840095 38.8062005 C-118.3073193 15.42581294 -83.33021206 3.99603161 -46.33947825 1.1343255 C-44.81183345 1.00928392 -44.81183345 1.00928392 -43.25332713 0.88171625 C-28.8501477 -0.1325467 -14.43059418 -0.01278049 0 0 Z "
     fill="#4F8F9E"
     transform="translate(212.33947825431824,-0.13432550430297852)"
     id="path1"
     style="fill:#017aff;fill-opacity:1" />
  <path
     d="M0 0 C3.70046212 1.60889658 5.93672881 3.52501694 8 7 C8 7.99 8 8.98 8 10 C20.21 10 32.42 10 45 10 C45.33 8.35 45.66 6.7 46 5 C49.13679476 1.55717648 51.28323449 -0.3090078 56 -0.5625 C60.17360406 -0.29065606 62.78446689 1.32038907 66 4 C68 7 68 7 68 10 C80.21 10 92.42 10 105 10 C105.33 8.35 105.66 6.7 106 5 C109.28839723 1.30055311 111.51368428 -0.33020093 116.5 -0.625 C121.48631572 -0.33020093 123.71160277 1.30055311 127 5 C127.65625 7.67578125 127.65625 7.67578125 128 10 C128.78761719 9.95359375 129.57523438 9.9071875 130.38671875 9.859375 C144.62809768 9.38747132 156.09039514 13.56674585 167.02734375 22.69140625 C176.6136793 31.73234853 182.8816845 43.98125491 183.57370853 57.21647644 C183.67413366 61.0001222 183.66395631 64.77800452 183.62890625 68.5625 C183.62973733 70.20963701 183.63220569 71.85677391 183.63621521 73.50390625 C183.63904924 76.92620319 183.62459702 80.34783686 183.59692383 83.77001953 C183.56262694 88.14579095 183.56895332 92.52039537 183.5875864 96.89622498 C183.59816604 100.28499026 183.58921356 103.6734852 183.57420158 107.06222534 C183.56904089 108.67608843 183.56947577 110.28997996 183.57574654 111.90383911 C183.5812195 114.15526026 183.56076869 116.40501871 183.53344727 118.65625 C183.5241494 120.57147461 183.5241494 120.57147461 183.5146637 122.52539062 C182.82783752 127.16230727 180.95250063 130.51879263 177.1875 133.375 C172.95128597 134.58534687 169.35605691 134.59918794 165.3125 132.8125 C163 131 163 131 159 126 C159 118.74 159 111.48 159 104 C91.35 104 23.7 104 -46 104 C-45.896875 128.42 -45.79375 152.84 -45.6875 178 C-45.66260498 185.70601562 -45.63770996 193.41203125 -45.61206055 201.3515625 C-45.57548917 208.26905422 -45.57548917 208.26905422 -45.5349884 215.18652344 C-45.51707727 218.26368737 -45.50745121 221.34075661 -45.50288391 224.41796875 C-45.4967768 228.34838313 -45.47638537 232.27848441 -45.44583857 236.2087822 C-45.43705108 237.64793077 -45.4331976 239.08712038 -45.43496072 240.52629471 C-45.44290951 249.83735637 -45.27890221 257.93881841 -38.8125 265.25 C-38.01779297 266.18585938 -38.01779297 266.18585938 -37.20703125 267.140625 C-29.43037794 273.69228336 -21.78103206 273.56540365 -12.10803032 273.51642036 C-9.58052376 273.5037021 -7.05409517 273.51515902 -4.52662659 273.53245544 C-0.072495 273.55906559 4.38136882 273.56475449 8.83557129 273.56335449 C15.96698508 273.56111984 23.09806814 273.57536913 30.22935295 273.61894035 C32.71050024 273.6287349 35.19112049 273.62008599 37.67225647 273.61024475 C39.2028131 273.61639204 40.73336691 273.6233048 42.26391602 273.63110352 C42.94618759 273.62338425 43.62845917 273.61566498 44.33140564 273.60771179 C49.89360615 273.66589979 54.48461421 274.98769137 58.875 278.5 C61.53210496 282.04280661 61.35916903 285.76180546 61 290 C58.97333762 293.70390021 57.51955484 295.65363011 54 298 C51.36467476 298.1994557 48.83481574 298.28336944 46.19897461 298.2746582 C45.4050531 298.27976913 44.61113159 298.28488007 43.79315186 298.29014587 C41.16280615 298.30406783 38.53272199 298.30308201 35.90234375 298.30078125 C34.06970625 298.30466911 32.23706964 298.30900396 30.4044342 298.31376648 C26.55678392 298.32123599 22.70922536 298.32093384 18.86157227 298.31567383 C13.95138249 298.30990333 9.0415729 298.32674777 4.13144588 298.3500185 C0.34196303 298.36482191 -3.44742992 298.36561816 -7.23693657 298.36250877 C-9.04567653 298.3630195 -10.85442185 298.36821021 -12.66313362 298.37832069 C-29.63358377 298.46147951 -43.02376473 295.89077383 -55.875 283.6875 C-68.67505334 270.00787699 -70.59734139 255.80541766 -70.50170898 237.89208984 C-70.50549701 235.86568324 -70.51100102 233.83927924 -70.51808167 231.81288147 C-70.53198861 226.33571937 -70.5209007 220.85887307 -70.50437045 215.38172865 C-70.49047274 209.6377538 -70.49698526 203.89379641 -70.50050354 198.14981079 C-70.50320149 188.50802549 -70.48976421 178.86636498 -70.46655273 169.22460938 C-70.4399306 158.08926259 -70.43820229 146.95412418 -70.4499411 135.81875646 C-70.46073163 125.08822624 -70.45452274 114.35777113 -70.44038582 103.62724686 C-70.43463863 99.06844932 -70.4346987 94.50970698 -70.43945122 89.95090866 C-70.44423444 84.58112918 -70.43406354 79.21157702 -70.41249657 73.84184074 C-70.40694742 71.87507455 -70.40644614 69.90828644 -70.41144943 67.94151878 C-70.41743693 65.2496932 -70.40483124 62.55855464 -70.38768005 59.86679077 C-70.3936901 59.09508336 -70.39970014 58.32337596 -70.40589231 57.52828348 C-70.34092531 51.89213613 -68.98282375 47.24716959 -67 42 C-66.75090502 41.25724772 -66.50181003 40.51449544 -66.24516672 39.74923551 C-63.53192514 31.80332463 -56.99180423 25.6511623 -51 20 C-50.34 20 -49.68 20 -49 20 C-49 19.34 -49 18.68 -49 18 C-40.11240512 12.63041143 -32.54872722 10.51901462 -22.27148438 10.00390625 C-20.07786419 9.83048296 -18.10748736 9.63550521 -16 9 C-13.96567418 6.69095277 -13.96567418 6.69095277 -13 4 C-9.5477846 -0.91276806 -5.56902863 -0.82688618 0 0 Z "
     fill="#FCFDFD"
     transform="translate(205,107)"
     id="path2" />
  <path
     d="M0 0 C7.97504258 5.70593728 13.74662701 13.75135468 15.53515625 23.4921875 C16.42428952 32.74575965 16.2648267 42.75260062 10.07829285 50.26013184 C-4.93646784 67.23422234 -20.93872889 83.29805435 -36.90179062 99.37382126 C-40.50249654 103.00025969 -44.09581278 106.63340418 -47.67285156 110.28320312 C-51.1835825 113.8650949 -54.71128524 117.42941905 -58.25162125 120.98204422 C-59.58362703 122.32439415 -60.90965297 123.67270775 -62.22924423 125.02726364 C-75.16920177 138.29314658 -75.16920177 138.29314658 -84.46484375 139.4921875 C-85.47337402 139.72574951 -86.4819043 139.95931152 -87.52099609 140.19995117 C-114.68864787 145.14214608 -114.68864787 145.14214608 -122.90234375 142.3046875 C-127.96572798 138.72326939 -131.00394879 135.18561398 -133.46484375 129.4921875 C-134.8175193 120.74244835 -133.05124733 111.69947958 -131.65234375 103.0546875 C-131.48726318 102.02424316 -131.32218262 100.99379883 -131.15209961 99.93212891 C-130.98073486 98.9426123 -130.80937012 97.9530957 -130.6328125 96.93359375 C-130.48094482 96.05388916 -130.32907715 95.17418457 -130.17260742 94.26782227 C-128.11704365 86.2065237 -124.3357134 81.76821493 -118.52783203 75.97412109 C-117.71922226 75.15207687 -116.91061249 74.33003265 -116.07749939 73.483078 C-113.40726485 70.7749223 -110.7222626 68.08203419 -108.03515625 65.390625 C-106.63776415 63.98362549 -105.24037583 62.5766221 -103.84349144 61.16911852 C-99.45088649 56.74400689 -95.04702841 52.33031154 -90.63671875 47.92285156 C-86.10870594 43.39723674 -81.60343006 38.84984227 -77.10836422 34.29152238 C-73.23123425 30.36181962 -69.33856131 26.44796993 -65.43378437 22.54573882 C-63.10946677 20.22243381 -60.79354992 17.89176165 -58.48929214 15.54853439 C-41.88026373 -1.31483459 -23.47462683 -14.36007283 0 0 Z "
     fill="#FCFDFE"
     transform="translate(408.46484375,256.5078125)"
     id="path3" />
  <path
     d="M0 0 C2.375 2.8125 2.375 2.8125 4 6 C6.74018076 8.1633006 8.48652151 8.92352448 11.9375 9.4375 C15.89044945 8.87279294 17.92822911 7.52567829 21 5 C21.38003174 4.13737549 21.76006348 3.27475098 22.15161133 2.38598633 C24 0 24 0 27.73706055 -0.56762695 C29.28717207 -0.56683644 30.83742544 -0.53864584 32.38671875 -0.48828125 C33.20372757 -0.48120651 34.02073639 -0.47413177 34.86250305 -0.46684265 C37.47176737 -0.43885512 40.0788846 -0.37611306 42.6875 -0.3125 C44.45634921 -0.28742256 46.22523207 -0.26460842 47.99414062 -0.24414062 C52.33025424 -0.18901471 56.66476315 -0.10271575 61 0 C61.433125 0.94875 61.86625 1.8975 62.3125 2.875 C63.79302201 6.20041937 63.79302201 6.20041937 67 8 C71.79689791 8.69920885 75.77459282 8.71482085 80 6.25 C81.83142845 4.18964299 82.84058891 2.46374856 84 0 C89.19599907 -0.14843537 94.39076228 -0.25725337 99.58837891 -0.32958984 C101.35585019 -0.35974483 103.12317203 -0.40067678 104.89013672 -0.45263672 C107.43234082 -0.52551609 109.9725662 -0.55946628 112.515625 -0.5859375 C113.30430969 -0.61690521 114.09299438 -0.64787292 114.90557861 -0.67977905 C117.14941406 -0.68115234 117.14941406 -0.68115234 121 0 C123.34277344 2.91162109 123.34277344 2.91162109 125 6 C128.10986207 8.07324138 128.89108387 8.27392186 132.4375 8.25 C133.19933594 8.25515625 133.96117187 8.2603125 134.74609375 8.265625 C137.28560277 7.96634144 138.8554785 7.38682118 141 6 C142.76727858 2.9665533 142.76727858 2.9665533 144 0 C152.8637278 -0.49041117 159.13162982 0.47055803 166.1875 6.0625 C178.39952537 18.67491964 175 27.40571982 175 46 C107.35 46 39.7 46 -30 46 C-30 15.68400771 -30 15.68400771 -22.97265625 7.6953125 C-15.80337919 1.80155099 -9.61071322 -1.90400922 0 0 Z "
     fill="#34A0A2"
     id="path4"
     style="fill:#017aff;fill-opacity:1"
     transform="translate(189,141)" />
  <path
     d="M0 0 C0.97279907 -0.01004562 1.94559814 -0.02009125 2.94787598 -0.03044128 C4.00358795 -0.03627228 5.05929993 -0.04210327 6.14700317 -0.04811096 C7.26790344 -0.05789474 8.38880371 -0.06767853 9.54367065 -0.07775879 C13.24883849 -0.10764709 16.95397054 -0.12907618 20.65921021 -0.14796448 C21.92566502 -0.1545363 23.19211983 -0.16110813 24.49695206 -0.1678791 C29.81914592 -0.19374523 35.1413256 -0.21723357 40.4635601 -0.23237514 C48.07415491 -0.25428737 55.684045 -0.29629995 63.29435813 -0.36581272 C69.30275213 -0.41882082 75.31082199 -0.43886378 81.31946182 -0.44757271 C83.87036748 -0.45613725 86.42126023 -0.47497959 88.97201157 -0.50431633 C92.54131906 -0.54316874 96.10878491 -0.54427286 99.67825317 -0.53639221 C100.72991669 -0.55639282 101.7815802 -0.57639343 102.8651123 -0.59700012 C109.00107048 -0.53621273 112.38716569 0.31932045 116.81262398 4.67732143 C119.58986896 8.02815397 119.33012447 10.91112819 119.04202271 15.16062927 C117.20457664 19.31905983 114.91512723 21.80511357 111.04202271 24.16062927 C107.21159347 24.76877557 103.40985264 24.71712449 99.53811646 24.69407654 C98.37498932 24.70269211 97.21186218 24.71130768 96.01348877 24.72018433 C92.16860709 24.74288789 88.32445161 24.73609715 84.47952271 24.72703552 C82.48333981 24.73094625 80.48715653 24.73486737 78.49097729 24.74033493 C72.21721929 24.75732259 65.9437046 24.75377921 59.66995239 24.73704529 C53.20259423 24.72011783 46.73591072 24.73596872 40.26862621 24.76826817 C34.71005613 24.79497508 29.15169592 24.80223742 23.59306812 24.79375309 C20.27565471 24.78882774 16.95873677 24.79312118 13.64135742 24.8115406 C9.94237863 24.82893045 6.24484902 24.81448774 2.54592896 24.79173279 C1.44967194 24.80342499 0.35341492 24.81511719 -0.77606201 24.8271637 C-8.20364519 24.73404563 -8.20364519 24.73404563 -12.05197144 21.8086853 C-15.46179979 17.07133547 -16.71195976 14.00970537 -15.95797729 8.16062927 C-14.32110545 4.57510046 -13.26825147 3.36747872 -9.95797729 1.16062927 C-6.60761302 0.29407503 -3.45167344 0.02817655 0 0 Z "
     fill="#FCFDFE"
     transform="translate(209.95797729492188,235.83937072753906)"
     id="path5" />
  <path
     d="M0 0 C0.95786407 -0.0065712 1.91572815 -0.0131424 2.90261841 -0.01991272 C6.08180819 -0.03967118 9.26095069 -0.05131363 12.44018555 -0.0612793 C13.52433432 -0.06535482 14.60848309 -0.06943035 15.72548485 -0.07362938 C21.46298407 -0.0945004 27.20045929 -0.10879799 32.93798828 -0.11816406 C38.86995464 -0.1292342 44.80154647 -0.16363838 50.73338032 -0.20333576 C55.28955289 -0.22945617 59.84563558 -0.23785181 64.40187645 -0.24144554 C66.58877277 -0.24632287 68.77566478 -0.25796927 70.96248817 -0.27648354 C74.02217075 -0.30077855 77.08087591 -0.29992745 80.140625 -0.29296875 C81.49753197 -0.31218384 81.49753197 -0.31218384 82.8818512 -0.33178711 C87.02667906 -0.29740065 89.19433409 -0.18005381 92.779953 2.06575012 C95.49083239 4.94984664 96.69238985 7.09281903 96.83081055 11.09887695 C96.57505489 15.2219681 96.02589486 16.86975054 93.2644043 20.11450195 C92.0269043 21.13543945 92.0269043 21.13543945 90.7644043 22.17700195 C90.2694043 22.67200195 90.2694043 22.67200195 89.7644043 23.17700195 C86.72196683 23.29899118 83.70185629 23.35566708 80.65820312 23.36987305 C79.70209137 23.37805054 78.74597961 23.38622803 77.76089478 23.39465332 C74.5810815 23.41956558 71.4013131 23.43603994 68.22143555 23.45043945 C67.13761786 23.45576313 66.05380016 23.46108681 64.93713951 23.46657181 C59.19849733 23.49333121 53.45987709 23.51269547 47.72119141 23.52709961 C41.79032913 23.54373654 35.86002371 23.58849882 29.92937183 23.63947105 C25.37315732 23.67312031 20.81707516 23.68467469 16.26074791 23.69032669 C14.07466066 23.69704766 11.88858238 23.71229155 9.70261574 23.7362175 C6.64047538 23.7678155 3.57983854 23.76791326 0.51757812 23.76049805 C-0.8362925 23.78510605 -0.8362925 23.78510605 -2.21751404 23.81021118 C-6.4909714 23.76788146 -9.36319213 23.53114663 -12.78266907 20.82803345 C-16.16038235 17.17752708 -16.63140008 14.18349554 -16.5949707 9.24731445 C-15.95380541 5.55364485 -13.87627958 3.75481241 -11.2355957 1.17700195 C-7.7842243 -0.54868375 -3.79970825 0.01121918 0 0 Z "
     fill="#FEFEFE"
     transform="translate(210.235595703125,284.822998046875)"
     id="path6" />
  <path
     d="M0 0 C2.91346593 1.31307249 4.9450979 2.71181588 7.1640625 5.00390625 C7.72867188 5.57947266 8.29328125 6.15503906 8.875 6.74804688 C9.4525 7.34681641 10.03 7.94558594 10.625 8.5625 C11.78160151 9.75349384 12.94035778 10.94240005 14.1015625 12.12890625 C14.86460693 12.91890015 14.86460693 12.91890015 15.64306641 13.72485352 C16.99400105 15.1164217 16.99400105 15.1164217 19 16 C17.44946266 19.65710126 15.22941692 22.07667808 12.48120117 24.92041016 C12.02386597 25.39570663 11.56653076 25.87100311 11.09533691 26.36070251 C9.58419068 27.9264249 8.06488497 29.48380946 6.54296875 31.0390625 C5.75916556 31.84070894 5.75916556 31.84070894 4.95952797 32.65855026 C2.18920786 35.48810755 -0.58876984 38.30992576 -3.37182617 41.12695312 C-5.66162186 43.44782798 -7.93462845 45.78338072 -10.1940918 48.13378906 C-12.93394456 50.98381834 -15.70045624 53.80526124 -18.48755455 56.60908127 C-19.53868368 57.67537571 -20.58048483 58.7509583 -21.61203957 59.83620071 C-28.78336409 67.35948137 -34.44126467 70.56308835 -45 71 C-46.60599346 71.19374852 -48.21061432 71.39979845 -49.8125 71.625 C-50.864375 71.74875 -51.91625 71.8725 -53 72 C-52.7910063 69.94489524 -52.57365844 67.89043239 -52.32421875 65.83984375 C-52.09315372 63.8159368 -51.91379651 61.7858457 -51.76953125 59.75390625 C-51.65996094 58.63886719 -51.55039062 57.52382813 -51.4375 56.375 C-51.31181641 54.80878906 -51.31181641 54.80878906 -51.18359375 53.2109375 C-49.92643726 49.80043375 -49.15742539 49.04403077 -46.44677734 46.80957031 C-41.97508947 43.01591864 -37.81624833 38.97775963 -33.66796875 34.8359375 C-32.90954178 34.08083893 -32.15111481 33.32574036 -31.3697052 32.54776001 C-29.78105491 30.96413655 -28.19372402 29.37918848 -26.60766602 27.79296875 C-24.1820014 25.36950639 -21.748427 22.95417596 -19.31445312 20.5390625 C-17.76513611 18.99267716 -16.21629125 17.4458186 -14.66796875 15.8984375 C-13.58046577 14.8217128 -13.58046577 14.8217128 -12.47099304 13.72323608 C-9.09398516 10.33082856 -6.31145013 7.23286438 -4 3 C-1.8125 1.1875 -1.8125 1.1875 0 0 Z "
     fill="#027DFB"
     transform="translate(352,304)"
     id="path7"
     style="fill:#017aff;fill-opacity:1" />
  <path
     d="M0 0 C1.1583284 -0.01921509 2.3166568 -0.03843018 3.51008606 -0.05822754 C5.38200874 -0.07097717 5.38200874 -0.07097717 7.29174805 -0.08398438 C8.57905319 -0.09538452 9.86635834 -0.10678467 11.19267273 -0.11853027 C13.91703869 -0.13951017 16.64128735 -0.15122119 19.36572266 -0.15820312 C22.84295687 -0.16915952 26.31861937 -0.21719508 29.79536152 -0.27414703 C33.12745813 -0.32054476 36.45934537 -0.32430793 39.79174805 -0.33398438 C41.03362381 -0.35867798 42.27549957 -0.38337158 43.55500793 -0.40881348 C53.20819646 -0.35919788 53.20819646 -0.35919788 57.51855469 3.21459961 C60.66431207 6.40125757 61.28902123 8.80373775 61.4519043 13.20898438 C61.15071001 16.22650491 60.15513337 17.9979205 58.2409668 20.32226562 C57.7665918 20.89976562 57.2922168 21.47726562 56.8034668 22.07226562 C53.5640565 24.66379386 49.72536404 24.45526853 45.72558594 24.48339844 C44.06850365 24.49780975 44.06850365 24.49780975 42.37794495 24.51251221 C40.59504311 24.51888702 40.59504311 24.51888702 38.77612305 24.52539062 C36.93793251 24.53394073 36.93793251 24.53394073 35.06260681 24.54266357 C32.47110863 24.55210779 29.87959846 24.55864526 27.28808594 24.5625 C23.32229759 24.57221947 19.35702446 24.60325496 15.39135742 24.63476562 C12.87378238 24.64129446 10.35620362 24.6465454 7.83862305 24.65039062 C6.65204605 24.66273743 5.46546906 24.67508423 4.24293518 24.68780518 C3.13506149 24.68480408 2.02718781 24.68180298 0.88574219 24.67871094 C-0.08592392 24.68235657 -1.05759003 24.6860022 -2.05870056 24.6897583 C-6.485486 24.08730985 -9.92018283 21.72888607 -12.7590332 18.32226562 C-13.96546886 14.70295864 -14.08171879 12.12995558 -13.7590332 8.32226562 C-10.30312959 1.78073378 -7.23026257 0.09697803 0 0 Z "
     fill="#FBFDFE"
     transform="translate(207.759033203125,332.677734375)"
     id="path8" />
  <path
     d="M0 0 C3.8026029 2.0050088 5.61790841 3.42686262 8 7 C8.73329601 11.47651636 8.47001391 15.05997218 6.4375 19.125 C3.47386544 22.62056897 0.32199809 25.8459681 -3 29 C-7.64080887 26.90308431 -10.73327953 23.67171494 -14.3125 20.125 C-14.97056641 19.49980469 -15.62863281 18.87460937 -16.30664062 18.23046875 C-17.23186523 17.31587891 -17.23186523 17.31587891 -18.17578125 16.3828125 C-18.74208252 15.82996582 -19.30838379 15.27711914 -19.8918457 14.70751953 C-21 13 -21 13 -20.78540039 10.90429688 C-19.73008655 8.34556266 -18.24391897 7.13688501 -16.125 5.375 C-15.07699219 4.48941406 -15.07699219 4.48941406 -14.0078125 3.5859375 C-9.21013578 -0.20366707 -5.98104036 -0.84714394 0 0 Z "
     fill="#0688EC"
     transform="translate(392,275)"
     id="path9"
     style="fill:#017aff;fill-opacity:1" />
</svg>
